<svg xmlns="http://www.w3.org/2000/svg" width="740" height="644" viewBox="0 0 740 644" shape-rendering="geometricPrecision">
<g fill="#27433c">
  <path d="M 500.00 224.00 L 487.00 223.00 L 473.00 226.00 L 469.00 228.00 L 469.00 230.00 L 472.00 230.00 L 475.00 234.00 L 472.00 238.00 L 468.00 234.00 L 467.00 230.00 L 460.00 230.00 L 454.00 234.00 L 449.00 234.00 L 444.00 237.00 L 439.00 243.00 L 434.00 245.00 L 433.00 249.00 L 429.00 252.00 L 428.00 255.00 L 424.00 255.00 L 421.00 260.00 L 416.00 263.00 L 414.00 268.00 L 408.00 274.00 L 406.00 283.00 L 403.00 287.00 L 403.00 290.00 L 406.00 291.00 L 407.00 294.00 L 406.00 295.00 L 405.00 293.00 L 401.00 293.00 L 399.00 302.00 L 395.00 310.00 L 393.00 324.00 L 394.00 341.00 L 391.00 345.00 L 392.00 353.00 L 394.00 353.00 L 395.00 350.00 L 398.00 351.00 L 404.00 347.00 L 407.00 347.00 L 412.00 342.00 L 417.00 342.00 L 421.00 340.00 L 423.00 337.00 L 439.00 330.00 L 443.00 326.00 L 449.00 325.00 L 457.00 321.00 L 486.00 301.00 L 485.00 288.00 L 487.00 287.00 L 488.00 290.00 L 495.00 289.00 L 495.00 282.00 L 501.00 276.00 L 501.00 269.00 L 499.00 267.00 L 502.00 266.00 L 501.00 260.00 L 505.00 253.00 L 505.00 249.00 L 503.00 246.00 L 505.00 239.00 Z"/>
  <path d="M 411.00 440.00 L 400.00 440.00 L 398.00 442.00 L 397.00 470.00 L 384.00 463.00 L 370.00 463.00 L 363.00 466.00 L 354.00 476.00 L 350.00 490.00 L 351.00 501.00 L 357.00 513.00 L 364.00 519.00 L 372.00 522.00 L 383.00 522.00 L 390.00 519.00 L 396.00 514.00 L 400.00 522.00 L 411.00 522.00 L 413.00 520.00 L 413.00 442.00 Z"/>
  <path d="M 544.00 468.00 L 544.00 474.00 L 547.00 478.00 L 555.00 475.00 L 567.00 474.00 L 573.00 476.00 L 576.00 479.00 L 577.00 485.00 L 575.00 487.00 L 552.00 488.00 L 545.00 491.00 L 540.00 496.00 L 538.00 501.00 L 538.00 508.00 L 541.00 515.00 L 545.00 519.00 L 552.00 522.00 L 564.00 522.00 L 575.00 516.00 L 578.00 518.00 L 580.00 522.00 L 591.00 522.00 L 593.00 520.00 L 593.00 483.00 L 589.00 471.00 L 585.00 467.00 L 576.00 463.00 L 559.00 463.00 Z"/>
  <path d="M 257.00 467.00 L 250.00 473.00 L 244.00 485.00 L 244.00 500.00 L 249.00 511.00 L 255.00 517.00 L 268.00 522.00 L 281.00 522.00 L 295.00 516.00 L 297.00 514.00 L 297.00 511.00 L 292.00 506.00 L 289.00 506.00 L 282.00 510.00 L 274.00 511.00 L 266.00 508.00 L 261.00 503.00 L 260.00 499.00 L 262.00 497.00 L 300.00 497.00 L 302.00 495.00 L 302.00 486.00 L 297.00 473.00 L 291.00 467.00 L 281.00 463.00 L 267.00 463.00 Z"/>
  <path d="M 166.00 445.00 L 166.00 451.00 L 193.00 520.00 L 195.00 522.00 L 211.00 521.00 L 240.00 449.00 L 240.00 446.00 L 225.00 446.00 L 206.00 499.00 L 204.00 502.00 L 202.00 502.00 L 181.00 446.00 Z"/>
  <path d="M 429.00 463.00 L 427.00 465.00 L 427.00 503.00 L 431.00 514.00 L 440.00 521.00 L 453.00 522.00 L 460.00 519.00 L 467.00 513.00 L 469.00 515.00 L 469.00 520.00 L 471.00 522.00 L 482.00 522.00 L 484.00 520.00 L 484.00 465.00 L 482.00 463.00 L 471.00 463.00 L 469.00 465.00 L 468.00 500.00 L 463.00 506.00 L 459.00 508.00 L 450.00 508.00 L 445.00 504.00 L 443.00 500.00 L 443.00 465.00 L 441.00 463.00 Z"/>
  <path d="M 345.00 463.00 L 336.00 466.00 L 331.00 471.00 L 328.00 470.00 L 328.00 465.00 L 326.00 463.00 L 314.00 463.00 L 312.00 465.00 L 312.00 520.00 L 314.00 522.00 L 326.00 522.00 L 328.00 520.00 L 328.00 488.00 L 335.00 479.00 L 345.00 477.00 L 347.00 475.00 L 347.00 465.00 Z"/>
  <path d="M 533.00 463.00 L 530.00 463.00 L 522.00 467.00 L 518.00 472.00 L 515.00 470.00 L 515.00 465.00 L 513.00 463.00 L 502.00 463.00 L 500.00 465.00 L 500.00 520.00 L 502.00 522.00 L 513.00 522.00 L 515.00 520.00 L 515.00 489.00 L 517.00 484.00 L 521.00 480.00 L 527.00 477.00 L 533.00 477.00 L 535.00 475.00 L 535.00 465.00 Z"/>
</g>
<g fill="#5d6f48">
  <path d="M 380.00 112.00 L 361.00 132.00 L 353.00 143.00 L 345.00 158.00 L 339.00 176.00 L 338.00 199.00 L 342.00 217.00 L 351.00 236.00 L 371.00 262.00 L 381.00 271.00 L 383.00 271.00 L 405.00 247.00 L 416.00 229.00 L 423.00 211.00 L 425.00 201.00 L 425.00 180.00 L 420.00 161.00 L 413.00 147.00 L 399.00 128.00 L 383.00 112.00 Z"/>
  <path d="M 260.00 222.00 L 258.00 224.00 L 258.00 263.00 L 263.00 281.00 L 274.00 299.00 L 287.00 311.00 L 302.00 320.00 L 331.00 334.00 L 369.00 355.00 L 373.00 355.00 L 372.00 325.00 L 366.00 297.00 L 362.00 285.00 L 347.00 259.00 L 336.00 247.00 L 326.00 239.00 L 308.00 230.00 L 289.00 224.00 L 277.00 222.00 Z"/>
</g>
<g fill="#4f4132">
  <path d="M 503.00 320.00 L 497.00 320.00 L 487.00 327.00 L 481.00 328.00 L 477.00 332.00 L 472.00 334.00 L 469.00 345.00 L 465.00 345.00 L 463.00 342.00 L 459.00 342.00 L 452.00 344.00 L 445.00 350.00 L 439.00 351.00 L 439.00 354.00 L 444.00 353.00 L 446.00 355.00 L 446.00 365.00 L 443.00 365.00 L 441.00 360.00 L 437.00 356.00 L 427.00 357.00 L 422.00 364.00 L 417.00 364.00 L 417.00 367.00 L 415.00 369.00 L 407.00 372.00 L 396.00 391.00 L 395.00 404.00 L 393.00 405.00 L 394.00 417.00 L 390.00 421.00 L 391.00 432.00 L 397.00 431.00 L 400.00 427.00 L 409.00 423.00 L 411.00 420.00 L 419.00 419.00 L 424.00 414.00 L 429.00 413.00 L 429.00 411.00 L 432.00 408.00 L 445.00 406.00 L 448.00 403.00 L 452.00 402.00 L 454.00 399.00 L 461.00 397.00 L 464.00 394.00 L 467.00 394.00 L 474.00 388.00 L 475.00 385.00 L 480.00 385.00 L 489.00 377.00 L 495.00 369.00 L 495.00 365.00 L 500.00 359.00 L 500.00 348.00 L 504.00 344.00 L 502.00 330.00 Z"/>
  <path d="M 259.00 318.00 L 259.00 323.00 L 262.00 324.00 L 262.00 328.00 L 259.00 329.00 L 259.00 335.00 L 263.00 344.00 L 263.00 357.00 L 271.00 371.00 L 274.00 372.00 L 274.00 375.00 L 276.00 377.00 L 279.00 377.00 L 284.00 385.00 L 290.00 387.00 L 291.00 389.00 L 295.00 389.00 L 296.00 387.00 L 299.00 388.00 L 297.00 389.00 L 297.00 393.00 L 300.00 396.00 L 307.00 397.00 L 313.00 402.00 L 325.00 406.00 L 325.00 402.00 L 328.00 401.00 L 331.00 403.00 L 329.00 405.00 L 329.00 409.00 L 339.00 414.00 L 345.00 419.00 L 357.00 420.00 L 358.00 423.00 L 360.00 423.00 L 364.00 428.00 L 369.00 431.00 L 372.00 431.00 L 372.00 415.00 L 365.00 409.00 L 366.00 405.00 L 368.00 404.00 L 369.00 395.00 L 361.00 378.00 L 350.00 366.00 L 346.00 366.00 L 342.00 362.00 L 340.00 362.00 L 334.00 356.00 L 329.00 356.00 L 325.00 354.00 L 322.00 350.00 L 313.00 345.00 L 307.00 344.00 L 305.00 342.00 L 298.00 342.00 L 297.00 344.00 L 294.00 335.00 L 288.00 334.00 L 285.00 330.00 L 275.00 327.00 L 264.00 319.00 Z"/>
</g>
</svg>